<svg xmlns="http://www.w3.org/2000/svg" viewBox="95 100 175 160">
<path d="M0 0 C4.05978737 2.10020237 5.98961754 4.0183496 8.234375 7.98046875 C8.80470459 8.97264404 9.37503418 9.96481934 9.96264648 10.98706055 C10.84738647 12.57127808 10.84738647 12.57127808 11.75 14.1875 C12.66664429 15.80168823 12.66664429 15.80168823 13.60180664 17.44848633 C14.83109815 19.61539774 16.05585117 21.7848906 17.27587891 23.95703125 C18.80108589 26.64892871 20.36128128 29.31356444 21.94921875 31.96875 C22.58875488 33.05313354 22.58875488 33.05313354 23.24121094 34.15942383 C24.01721529 35.47498875 24.80251159 36.78513357 25.59863281 38.08862305 C27.25178455 40.94532293 28.03870992 42.59163758 27.72265625 45.92578125 C27.48417969 46.61027344 27.24570313 47.29476562 27 48 C22.8235851 48.18158326 19.21221784 47.90685146 15.125 47 C11.80640226 46.30799408 8.57541382 45.74852522 5.1875 45.5625 C4.50042969 45.52253906 3.81335938 45.48257813 3.10546875 45.44140625 C-1.67626666 46.71002993 -4.16813899 51.07867118 -6.5703125 55.109375 C-7.43075421 56.65132864 -8.28216233 58.1983539 -9.125 59.75 C-9.55425781 60.51054687 -9.98351562 61.27109375 -10.42578125 62.0546875 C-13.26632551 67.21136786 -15.33482681 72.35551566 -17 78 C-16.11699219 77.49210937 -15.23398438 76.98421875 -14.32421875 76.4609375 C-9.10150348 73.47765327 -3.84984945 70.54618468 1.40454102 67.61914062 C2.584829 66.96103674 3.76452606 66.30187182 4.94360352 65.64160156 C8.94746892 63.39975048 12.96765042 61.19016826 17 59 C18.10939941 58.38995117 19.21879883 57.77990234 20.36181641 57.15136719 C21.4141748 56.59352539 22.4665332 56.03568359 23.55078125 55.4609375 C24.48188721 54.96126465 25.41299316 54.4615918 26.37231445 53.94677734 C29.46507423 52.83242982 30.93507444 52.84948205 34 54 C35.39941406 55.48925781 35.39941406 55.48925781 36.515625 57.453125 C36.95302002 58.20223145 37.39041504 58.95133789 37.84106445 59.72314453 C38.53848755 60.97393799 38.53848755 60.97393799 39.25 62.25 C39.75813232 63.12897949 40.26626465 64.00795898 40.78979492 64.91357422 C41.92057097 66.87013755 43.0448039 68.83049235 44.16357422 70.79394531 C46.09553719 74.16679 48.05966566 77.51974956 50.03515625 80.8671875 C54.01203631 87.60955409 57.96327648 94.36659903 61.9072876 101.12823486 C63.00622686 103.01066631 64.10710273 104.89195274 65.20849609 106.77294922 C66.97789184 109.79545859 68.74205311 112.82096334 70.50228882 115.84881592 C71.47925162 117.52686226 72.46088993 119.20218373 73.44262695 120.87744141 C74.02874756 121.8885498 74.61486816 122.8996582 75.21875 123.94140625 C75.73373047 124.82513916 76.24871094 125.70887207 76.77929688 126.61938477 C78.82244387 130.60393003 78.82244387 130.60393003 79 133 C77.50866699 134.61695862 77.50866699 134.61695862 76 136 C64.49889827 132.91712732 53.09675511 129.51833774 41.69091797 126.10253906 C39.21715331 125.3635841 36.74219989 124.6285978 34.26611328 123.89746094 C30.67460237 122.83664512 27.08699503 121.76347243 23.5 120.6875 C22.39068115 120.36241455 21.2813623 120.0373291 20.13842773 119.70239258 C18.60037476 119.23675903 18.60037476 119.23675903 17.03125 118.76171875 C15.67870117 118.358927 15.67870117 118.358927 14.29882812 117.94799805 C11.91026143 116.96299332 10.66246791 115.94901767 9 114 C9.495 112.515 9.495 112.515 10 111 C14.70197076 108.87326245 19.3042777 108.59506751 24.375 108.375 C25.11105469 108.33632812 25.84710938 108.29765625 26.60546875 108.2578125 C28.40327406 108.16442002 30.20160108 108.0811629 32 108 C31.46292086 103.06931511 29.93650325 99.61133053 27.5 95.3125 C24.07705193 89.23115578 24.07705193 89.23115578 23 86 C16.71722484 83.96234319 11.76576483 86.50336351 6 89 C1.44941472 91.34359509 -2.96408415 93.90614814 -7.375 96.5 C-8.61715499 97.22151908 -9.85983913 97.94212788 -11.10302734 98.66186523 C-13.58725978 100.1012349 -16.0690478 101.54467364 -18.54882812 102.99169922 C-23.22383039 105.71216955 -27.92315739 108.38879457 -32.625 111.0625 C-38.39682409 114.35235974 -44.15417111 117.66616713 -49.8984375 121.00390625 C-51.08899683 121.69463717 -52.27958921 122.38531111 -53.47021484 123.07592773 C-55.77741772 124.41421955 -58.08194155 125.75679581 -60.38525391 127.10180664 C-61.43374512 127.71016357 -62.48223633 128.31852051 -63.5625 128.9453125 C-64.49191406 129.48687988 -65.42132813 130.02844727 -66.37890625 130.58642578 C-68.87090549 131.93037843 -71.35092649 133.00779502 -74 134 C-74.99 133.01 -75.98 132.02 -77 131 C-75.27587932 126.22551195 -72.84826477 121.91495388 -70.375 117.5 C-69.69969238 116.28981201 -69.69969238 116.28981201 -69.01074219 115.05517578 C-65.90917486 109.53236366 -62.65614138 104.12651696 -59.30078125 98.75390625 C-53.65856793 89.63092451 -48.3773288 80.28031796 -43 71 C-42.06414062 69.38593262 -42.06414062 69.38593262 -41.109375 67.73925781 C-34.99767702 57.19215917 -28.90579518 46.63548937 -22.93334961 36.00878906 C-18.16210464 27.5198682 -13.3402216 19.06474725 -8.375 10.6875 C-7.87782471 9.83881348 -7.38064941 8.99012695 -6.8684082 8.11572266 C-6.17171021 6.95049072 -6.17171021 6.95049072 -5.4609375 5.76171875 C-4.85451416 4.740177 -4.85451416 4.740177 -4.23583984 3.69799805 C-3 2 -3 2 0 0 Z " fill="#C5C5C3" transform="translate(179,112)"/>
<path d="M0 0 C0.598125 0.20625 1.19625 0.4125 1.8125 0.625 C-0.45826465 3.43006221 -2.99960401 4.4123762 -6.27270508 5.77514648 C-9.31343308 7.12472881 -12.13387514 8.81635637 -15 10.5 C-19.87596499 13.33648953 -24.78375398 15.99702879 -29.86328125 18.45703125 C-33.11938139 20.09328998 -36.24606274 21.93849992 -39.375 23.8046875 C-39.973125 24.07539063 -40.57125 24.34609375 -41.1875 24.625 C-41.8475 24.295 -42.5075 23.965 -43.1875 23.625 C-39.26803279 20.16906259 -35.70237016 17.67606823 -30.9375 15.4375 C-25.01264958 12.5886541 -19.24152256 9.51450296 -13.5 6.3125 C-12.33259277 5.66341675 -12.33259277 5.66341675 -11.14160156 5.0012207 C-1.68476173 -0.2888163 -1.68476173 -0.2888163 0 0 Z " fill="#D0D4D4" transform="translate(203.1875,168.375)"/>
<path d="M0 0 C3.59624508 1.19874836 3.94102427 2.03640783 5.75 5.25 C6.19859375 6.01828125 6.6471875 6.7865625 7.109375 7.578125 C8.17526806 10.47660612 7.85040031 12.07545258 7 15 C1.22721294 15.24795864 -3.83354896 14.33663941 -9.4375 13 C-10.26443359 12.80921875 -11.09136719 12.6184375 -11.94335938 12.421875 C-13.96382366 11.95471563 -15.98214547 11.47830626 -18 11 C-18 10.67 -18 10.34 -18 10 C-12.555 9.505 -12.555 9.505 -7 9 C-7 9.33 -7 9.66 -7 10 C-1.2025577 10.24428343 -1.2025577 10.24428343 4 8 C3.01 7.34 2.02 6.68 1 6 C0.3125 2.875 0.3125 2.875 0 0 Z " fill="#C8CCC9" transform="translate(199,145)"/>
<path d="M0 0 C5.04561768 1.45664789 7.80069957 6.18972427 10.34375 10.515625 C11.0374096 11.86422832 11.6529132 13.25271855 12.24609375 14.6484375 C11.25609375 14.6484375 10.26609375 14.6484375 9.24609375 14.6484375 C7.859375 12.96875 7.859375 12.96875 6.55859375 10.7734375 C6.12160156 10.05414063 5.68460938 9.33484375 5.234375 8.59375 C4.24609375 6.6484375 4.24609375 6.6484375 4.24609375 4.6484375 C-2.03619576 2.6109382 -7.04474778 5.00583197 -12.75390625 7.6484375 C-15.91183518 9.37479457 -19.01635372 11.18929689 -22.0703125 13.09350586 C-23.58964036 14.01777806 -25.16915603 14.84146601 -26.75390625 15.6484375 C-27.74390625 15.3184375 -28.73390625 14.9884375 -29.75390625 14.6484375 C-27.345156 11.85935826 -25.1539448 10.97888737 -21.75390625 9.6484375 C-17.53535883 7.46508579 -13.52097777 5.2397218 -9.75390625 2.3359375 C-6.29028795 0.38765221 -3.94422405 -0.17293394 0 0 Z " fill="#CFD4D2" transform="translate(197.75390625,193.3515625)"/>
<path d="M0 0 C1 3 1 3 0.2590332 4.83422852 C-0.13968994 5.50897217 -0.53841309 6.18371582 -0.94921875 6.87890625 C-1.38379395 7.63123535 -1.81836914 8.38356445 -2.26611328 9.15869141 C-2.7351709 9.95194824 -3.20422852 10.74520508 -3.6875 11.5625 C-7.32206374 17.87848554 -10.66576008 24.06695904 -13 31 C-13.66 31 -14.32 31 -15 31 C-14.66666667 29 -14.33333333 27 -14 25 C-13.835 23.948125 -13.67 22.89625 -13.5 21.8125 C-13 19 -13 19 -12 16 C-11.01 16.33 -10.02 16.66 -9 17 C-8.731875 16.175 -8.46375 15.35 -8.1875 14.5 C-6.87475078 10.63084439 -5.44898716 6.82005706 -4 3 C-3.01 3 -2.02 3 -1 3 C-0.67 2.01 -0.34 1.02 0 0 Z " fill="#D2D6D4" transform="translate(174,160)"/>
<path d="M0 0 C3.69318009 1.23106003 3.94082668 2.15268315 5.77734375 5.48046875 C6.29103516 6.39763672 6.80472656 7.31480469 7.33398438 8.25976562 C7.86314453 9.22591797 8.39230469 10.19207031 8.9375 11.1875 C9.98630412 13.07792118 11.03703928 14.9672725 12.08984375 16.85546875 C12.83355225 18.19496582 12.83355225 18.19496582 13.59228516 19.56152344 C14.78316184 21.62438787 16.03146958 23.57670407 17.39453125 25.52734375 C19 28 19 28 18.75 30.375 C18.5025 30.91125 18.255 31.4475 18 32 C14.79347333 27.86626386 12.34155197 23.44244621 9.8125 18.875 C9.34908203 18.05128906 8.88566406 17.22757813 8.40820312 16.37890625 C7.97056641 15.59128906 7.53292969 14.80367187 7.08203125 13.9921875 C6.68218018 13.27401855 6.2823291 12.55584961 5.87036133 11.81591797 C5 10 5 10 5 8 C4.34 8 3.68 8 3 8 C0 2.25 0 2.25 0 0 Z " fill="#C9CDCD" transform="translate(218,178)"/>
<path d="M0 0 C2.4375 1.1875 2.4375 1.1875 5 3 C5.8125 5.6875 5.8125 5.6875 6 8 C4.5 6.625 4.5 6.625 3 5 C3 4.34 3 3.68 3 3 C2.01 3 1.02 3 0 3 C-0.33 3.66 -0.66 4.32 -1 5 C-2.52711495 7.24728847 -4.07338926 9.48049706 -5.625 11.7109375 C-6.93019638 13.88379283 -7.41141072 15.57272031 -8 18 C-10.0625 19.75 -10.0625 19.75 -12 21 C-11.49965221 15.99652213 -9.79768993 12.41709721 -7.125 8.25 C-6.77308594 7.67378906 -6.42117187 7.09757812 -6.05859375 6.50390625 C-4.22909408 3.58622833 -2.90952777 1.93968518 0 0 Z " fill="#CBD0CD" transform="translate(179,112)"/>
<path d="M0 0 C5.82159361 1.03305941 11.30755056 2.37169931 16.8828125 4.3359375 C19.90867376 5.28500838 22.85124423 5.66502598 26 6 C26 6.66 26 7.32 26 8 C28.97 8.495 28.97 8.495 32 9 C32 9.33 32 9.66 32 10 C24.59213333 9.45155523 18.00003708 7.68770898 10.9375 5.4375 C9.88111328 5.10814453 8.82472656 4.77878906 7.73632812 4.43945312 C5.15517166 3.6335717 2.57660074 2.82030684 0 2 C0 1.34 0 0.68 0 0 Z " fill="#C8D1CE" transform="translate(208,232)"/>
<path d="M0 0 C4.02779388 1.34259796 4.93053548 3.38993351 7.05859375 6.921875 C8 9 8 9 7.8125 12 C7.544375 12.66 7.27625 13.32 7 14 C3.57056481 15.18771723 1.62215325 14.80226223 -1.75 13.5625 C-2.54921875 13.27503906 -3.3484375 12.98757812 -4.171875 12.69140625 C-4.77515625 12.46324219 -5.3784375 12.23507813 -6 12 C-6 11.34 -6 10.68 -6 10 C-2.53058454 10.45822468 0.67395049 10.89131683 4 12 C3.67 10.35 3.34 8.7 3 7 C2.34 7 1.68 7 1 7 C0.67 4.69 0.34 2.38 0 0 Z " fill="#D8DDDB" transform="translate(250,233)"/>
<path d="M0 0 C4.39158329 1.4638611 4.87947433 3.97831338 7 8 C2.69230769 11.07692308 2.69230769 11.07692308 -0.8125 10.6875 C-1.534375 10.460625 -2.25625 10.23375 -3 10 C-2.67 9.236875 -2.34 8.47375 -2 7.6875 C-0.82563314 5.00930865 -0.82563314 5.00930865 -1 2 C-0.67 1.34 -0.34 0.68 0 0 Z " fill="#C5C7C2" transform="translate(108,231)"/>
<path d="M0 0 C0.625 1.875 0.625 1.875 1 4 C0.34 4.66 -0.32 5.32 -1 6 C0.65 6.33 2.3 6.66 4 7 C2.25 9.0625 2.25 9.0625 0 11 C-2.25 10.75 -2.25 10.75 -4 10 C-4.8125 8.375 -4.8125 8.375 -5 6 C-3.53181864 3.75390165 -1.84147142 1.97621323 0 0 Z " fill="#D1D5D3" transform="translate(107,235)"/>
<path d="M0 0 C0.99 0.33 1.98 0.66 3 1 C2.29445932 4.66881155 0.72264494 7.70450534 -1 11 C-1.99 10.67 -2.98 10.34 -4 10 C-3.43454163 6.04179141 -2.19097652 3.3340947 0 0 Z " fill="#C9CBCA" transform="translate(143,171)"/>
<path d="M0 0 C0.66 1.32 1.32 2.64 2 4 C-1.63 5.98 -5.26 7.96 -9 10 C-9 9.01 -9 8.02 -9 7 C-7.04109119 5.60699818 -5.0360882 4.27754554 -3 3 C-1.20605554 1.37648891 -1.20605554 1.37648891 0 0 Z " fill="#C9CECC" transform="translate(120,233)"/>
<path d="M0 0 C3.96873434 1.32291145 4.29905037 2.91149738 6.1875 6.5625 C6.71730469 7.57441406 7.24710938 8.58632812 7.79296875 9.62890625 C8.19128906 10.41136719 8.58960938 11.19382813 9 12 C8.01 12 7.02 12 6 12 C5.0234375 10.20963542 4.046875 8.41927083 3.0703125 6.62890625 C2.08589976 4.83381685 2.08589976 4.83381685 0 4 C0 2.68 0 1.36 0 0 Z " fill="#CBCFCD" transform="translate(185,121)"/>
<path d="M0 0 C3.83734649 1.2791155 4.48165136 2.78875494 6.34765625 6.2109375 C7 8 7 8 6.25 10.4375 C5.8375 10.953125 5.425 11.46875 5 12 C4.34 10.35 3.68 8.7 3 7 C2.34 7 1.68 7 1 7 C0.67 4.69 0.34 2.38 0 0 Z " fill="#CFD3D0" transform="translate(250,233)"/>
<path d="M0 0 C2.375 0.3125 2.375 0.3125 5 1 C7 4 7 4 6.625 6.1875 C6.41875 6.785625 6.2125 7.38375 6 8 C5.34 7.01 4.68 6.02 4 5 C0.94570927 3.78715124 0.94570927 3.78715124 -2 3 C-1.34 2.01 -0.68 1.02 0 0 Z " fill="#CCD0CE" transform="translate(208,165)"/>
<path d="M0 0 C0.8125 1.625 0.8125 1.625 1 4 C-0.46818136 6.24609835 -2.15852858 8.02378677 -4 10 C-4.6875 8.3125 -4.6875 8.3125 -5 6 C-2.73846154 1.36923077 -2.73846154 1.36923077 0 0 Z " fill="#C7CDCA" transform="translate(131,194)"/>
<path d="M0 0 C3.84556115 1.28185372 4.42068027 2.78579777 6.28125 6.2109375 C7 8 7 8 6.75 10.4375 C6.5025 10.953125 6.255 11.46875 6 12 C5.67 10.68 5.34 9.36 5 8 C4.34 8 3.68 8 3 8 C0 2.25 0 2.25 0 0 Z " fill="#CFD3D2" transform="translate(218,178)"/>
<path d="M0 0 C-6.36363636 5 -6.36363636 5 -11 5 C-11 4.34 -11 3.68 -11 3 C-9.73581754 2.30034557 -8.46334598 1.61565237 -7.1875 0.9375 C-6.47980469 0.55464844 -5.77210938 0.17179688 -5.04296875 -0.22265625 C-3 -1 -3 -1 0 0 Z " fill="#CCD0D0" transform="translate(142,225)"/>
<path d="M0 0 C1.60031344 3.20062687 0.03173691 5.72271806 -1 9 C-1.99 9 -2.98 9 -4 9 C-4.33 9.99 -4.66 10.98 -5 12 C-5.33 11.34 -5.66 10.68 -6 10 C-4.78515625 7.6171875 -4.78515625 7.6171875 -3.0625 4.875 C-2.21365234 3.50988281 -2.21365234 3.50988281 -1.34765625 2.1171875 C-0.90292969 1.41851562 -0.45820312 0.71984375 0 0 Z " fill="#BAC0BE" transform="translate(115,219)"/>
<path d="M0 0 C0.99 0.33 1.98 0.66 3 1 C3.33 1.99 3.66 2.98 4 4 C2.68 5.32 1.36 6.64 0 8 C-1.125 5.6875 -1.125 5.6875 -2 3 C-1.34 2.01 -0.68 1.02 0 0 Z " fill="#BEC0BF" transform="translate(108,231)"/>
<path d="M0 0 C-1.47559669 4.42679007 -3.90057368 4.91432696 -8 7 C-8.66 7 -9.32 7 -10 7 C-10 6.01 -10 5.02 -10 4 C-8.71086513 3.32845067 -7.41859796 2.66291141 -6.125 2 C-5.40570313 1.62875 -4.68640625 1.2575 -3.9453125 0.875 C-2 0 -2 0 0 0 Z " fill="#CDD1D0" transform="translate(167,209)"/>
<path d="M0 0 C2.64 0 5.28 0 8 0 C7.360625 0.309375 6.72125 0.61875 6.0625 0.9375 C4.06389179 1.8345163 4.06389179 1.8345163 3 3 C3.66 3.66 4.32 4.32 5 5 C3.35 4.67 1.7 4.34 0 4 C0 2.68 0 1.36 0 0 Z " fill="#D3D6D6" transform="translate(189,223)"/>
<path d="M0 0 C0.33 0.99 0.66 1.98 1 3 C0.67 3.66 0.34 4.32 0 5 C-0.66 5 -1.32 5 -2 5 C-2.66 6.65 -3.32 8.3 -4 10 C-4.6875 8.3125 -4.6875 8.3125 -5 6 C-2.73846154 1.36923077 -2.73846154 1.36923077 0 0 Z " fill="#C9CECC" transform="translate(138,182)"/>
<path d="M0 0 C0.66 0.33 1.32 0.66 2 1 C0.06745228 3.0245738 -1.63158688 4.42105792 -4 6 C-4.99 6 -5.98 6 -7 6 C-7 5.34 -7 4.68 -7 4 C-6.34 4 -5.68 4 -5 4 C-5 3.34 -5 2.68 -5 2 C-2.625 0.9375 -2.625 0.9375 0 0 Z " fill="#CDD2D0" transform="translate(151,217)"/>
<path d="M0 0 C-2.34112451 1.44977894 -3.5796929 2.04314411 -6.359375 1.7578125 C-7.14828125 1.54898438 -7.9371875 1.34015625 -8.75 1.125 C-9.54921875 0.92132813 -10.3484375 0.71765625 -11.171875 0.5078125 C-12.07679688 0.25644531 -12.07679688 0.25644531 -13 0 C-13 -0.33 -13 -0.66 -13 -1 C-11.58566794 -1.2236337 -10.16832382 -1.42826476 -8.75 -1.625 C-7.56664062 -1.79902344 -7.56664062 -1.79902344 -6.359375 -1.9765625 C-3.67847541 -2.00319395 -2.27305911 -1.36592084 0 0 Z " fill="#D8DAD9" transform="translate(194,156)"/>
<path d="M0 0 C0.33 0.99 0.66 1.98 1 3 C-0.9375 5.6875 -0.9375 5.6875 -3 8 C-3.33 6.35 -3.66 4.7 -4 3 C-3.01 3 -2.02 3 -1 3 C-0.67 2.01 -0.34 1.02 0 0 Z " fill="#CBD0D0" transform="translate(174,160)"/>
<path d="M0 0 C0.33 0.66 0.66 1.32 1 2 C-0.25 4.625 -0.25 4.625 -2 7 C-2.99 7 -3.98 7 -5 7 C-2.25 1.125 -2.25 1.125 0 0 Z " fill="#CDD1D0" transform="translate(158,147)"/>
<path d="M0 0 C3 1 3 1 5 4 C4.625 6.1875 4.625 6.1875 4 8 C0 3.375 0 3.375 0 0 Z " fill="#C9CDCB" transform="translate(193,135)"/>
</svg>
